<mxfile host="65bd71144e" scale="2" border="10">
    <diagram id="uLJD97KROvu1CpyDIIDq" name="Page-1">
        <mxGraphModel dx="389" dy="375" grid="1" gridSize="10" guides="1" tooltips="1" connect="1" arrows="1" fold="1" page="0" pageScale="1" pageWidth="850" pageHeight="1100" background="#ffffff" math="0" shadow="0">
            <root>
                <mxCell id="0"/>
                <mxCell id="1" parent="0"/>
                <mxCell id="96" value="Public subnet" style="points=[[0,0],[0.25,0],[0.5,0],[0.75,0],[1,0],[1,0.25],[1,0.5],[1,0.75],[1,1],[0.75,1],[0.5,1],[0.25,1],[0,1],[0,0.75],[0,0.5],[0,0.25]];outlineConnect=0;gradientColor=none;html=1;whiteSpace=wrap;fontSize=12;fontStyle=0;container=1;pointerEvents=0;collapsible=0;recursiveResize=0;shape=mxgraph.aws4.group;grIcon=mxgraph.aws4.group_security_group;grStroke=0;strokeColor=#248814;fillColor=#E9F3E6;verticalAlign=top;align=left;spacingLeft=30;fontColor=#248814;dashed=0;labelBackgroundColor=none;strokeWidth=2;" parent="1" vertex="1">
                    <mxGeometry x="160" y="200" width="200" height="510" as="geometry"/>
                </mxCell>
                <mxCell id="98" value="Private subnet" style="points=[[0,0],[0.25,0],[0.5,0],[0.75,0],[1,0],[1,0.25],[1,0.5],[1,0.75],[1,1],[0.75,1],[0.5,1],[0.25,1],[0,1],[0,0.75],[0,0.5],[0,0.25]];outlineConnect=0;gradientColor=none;html=1;whiteSpace=wrap;fontSize=12;fontStyle=0;container=1;pointerEvents=0;collapsible=0;recursiveResize=0;shape=mxgraph.aws4.group;grIcon=mxgraph.aws4.group_security_group;grStroke=0;strokeColor=#147EBA;fillColor=#E6F2F8;verticalAlign=top;align=left;spacingLeft=30;fontColor=#147EBA;dashed=0;labelBackgroundColor=none;strokeWidth=2;" parent="1" vertex="1">
                    <mxGeometry x="380" y="200" width="370" height="510" as="geometry"/>
                </mxCell>
                <mxCell id="37" value="&lt;span style=&quot;font-weight: 700;&quot;&gt;&amp;nbsp; &amp;nbsp; &amp;nbsp; &amp;nbsp; &amp;nbsp;Entorno Container App&lt;/span&gt;" style="rounded=0;whiteSpace=wrap;html=1;labelBackgroundColor=none;fontColor=#333333;fillColor=none;dashed=1;align=left;verticalAlign=top;strokeColor=#7F00FF;" parent="1" vertex="1">
                    <mxGeometry x="254" y="340" width="276" height="224" as="geometry"/>
                </mxCell>
                <mxCell id="73" value="" style="edgeStyle=elbowEdgeStyle;html=1;fontColor=#333333;startArrow=classic;startFill=1;endArrow=classic;endFill=1;exitX=1.042;exitY=0.507;exitDx=0;exitDy=0;exitPerimeter=0;strokeColor=#1A1A1A;labelBackgroundColor=none;" parent="1" source="2" edge="1">
                    <mxGeometry relative="1" as="geometry">
                        <mxPoint x="329.51" y="505" as="sourcePoint"/>
                        <mxPoint x="430" y="505" as="targetPoint"/>
                    </mxGeometry>
                </mxCell>
                <mxCell id="2" value="CLIENT" style="aspect=fixed;html=1;points=[];align=center;image;fontSize=12;image=img/lib/azure2/other/Worker_Container_App.svg;fontStyle=1;fontColor=#333333;labelBackgroundColor=none;" parent="1" vertex="1">
                    <mxGeometry x="280" y="480" width="51.51" height="50" as="geometry"/>
                </mxCell>
                <mxCell id="114" style="edgeStyle=orthogonalEdgeStyle;html=1;strokeColor=#4D4D4D;" parent="1" source="17" edge="1">
                    <mxGeometry relative="1" as="geometry">
                        <mxPoint x="685" y="360" as="targetPoint"/>
                    </mxGeometry>
                </mxCell>
                <mxCell id="116" style="edgeStyle=orthogonalEdgeStyle;html=1;entryX=0.5;entryY=0;entryDx=0;entryDy=0;entryPerimeter=0;strokeColor=#4D4D4D;" parent="1" target="111" edge="1">
                    <mxGeometry relative="1" as="geometry">
                        <mxPoint x="685" y="510" as="sourcePoint"/>
                    </mxGeometry>
                </mxCell>
                <mxCell id="17" value="MonitorizaciÃ³n" style="aspect=fixed;html=1;points=[];align=center;image;fontSize=12;image=img/lib/azure2/management_governance/Monitor.svg;fontStyle=1;fontColor=#333333;labelBackgroundColor=none;" parent="1" vertex="1">
                    <mxGeometry x="660" y="440" width="50" height="50" as="geometry"/>
                </mxCell>
                <mxCell id="26" value="BBDD" style="aspect=fixed;html=1;points=[];align=center;image;fontSize=12;image=img/lib/azure2/databases/Azure_Database_PostgreSQL_Server.svg;fontStyle=1;fontColor=#333333;labelBackgroundColor=none;" parent="1" vertex="1">
                    <mxGeometry x="561.25" y="480" width="37.5" height="50" as="geometry"/>
                </mxCell>
                <mxCell id="42" value="Europe-West" style="points=[[0,0],[0.25,0],[0.5,0],[0.75,0],[1,0],[1,0.25],[1,0.5],[1,0.75],[1,1],[0.75,1],[0.5,1],[0.25,1],[0,1],[0,0.75],[0,0.5],[0,0.25]];outlineConnect=0;gradientColor=none;html=1;whiteSpace=wrap;fontSize=12;fontStyle=1;container=0;pointerEvents=0;collapsible=0;recursiveResize=0;shape=mxgraph.aws4.group;grIcon=mxgraph.aws4.group_region;strokeColor=#147EBA;fillColor=none;verticalAlign=top;align=left;spacingLeft=30;fontColor=#333333;dashed=1;labelBackgroundColor=none;" parent="1" vertex="1">
                    <mxGeometry x="140" y="160" width="630" height="570" as="geometry"/>
                </mxCell>
                <mxCell id="63" value="" style="edgeStyle=elbowEdgeStyle;html=1;fontColor=#333333;startArrow=classic;startFill=1;endArrow=classic;endFill=1;exitX=0.513;exitY=0.004;exitDx=0;exitDy=0;exitPerimeter=0;strokeColor=#1A1A1A;labelBackgroundColor=none;" parent="1" edge="1">
                    <mxGeometry relative="1" as="geometry">
                        <mxPoint x="205.6500000000001" y="477.20000000000005" as="sourcePoint"/>
                        <mxPoint x="205.24" y="434" as="targetPoint"/>
                    </mxGeometry>
                </mxCell>
                <mxCell id="65" value="" style="edgeStyle=elbowEdgeStyle;html=1;fontColor=#333333;startArrow=none;startFill=0;endArrow=classic;endFill=1;exitX=1.016;exitY=0.498;exitDx=0;exitDy=0;exitPerimeter=0;strokeColor=#1A1A1A;labelBackgroundColor=none;" parent="1" edge="1">
                    <mxGeometry relative="1" as="geometry">
                        <mxPoint x="232.79999999999995" y="504.9" as="sourcePoint"/>
                        <mxPoint x="276" y="505" as="targetPoint"/>
                    </mxGeometry>
                </mxCell>
                <mxCell id="103" style="edgeStyle=none;html=1;strokeColor=#4D4D4D;fontColor=#4D4D4D;" parent="1" target="99" edge="1">
                    <mxGeometry relative="1" as="geometry">
                        <mxPoint x="205" y="550" as="sourcePoint"/>
                    </mxGeometry>
                </mxCell>
                <mxCell id="58" value="Dominio" style="sketch=0;aspect=fixed;html=1;points=[];align=center;image;fontSize=12;image=img/lib/mscae/DNS.svg;dashed=1;dashPattern=1 2;labelBackgroundColor=none;fontColor=#333333;fillColor=none;fontStyle=1" parent="1" vertex="1">
                    <mxGeometry x="180" y="480" width="50" height="50" as="geometry"/>
                </mxCell>
                <mxCell id="19" value="Secretos" style="aspect=fixed;html=1;points=[];align=center;image;fontSize=12;image=img/lib/azure2/security/Key_Vaults.svg;fontStyle=1;fontColor=#333333;labelBackgroundColor=none;" parent="1" vertex="1">
                    <mxGeometry x="398.99" y="369.16" width="31.67" height="31.67" as="geometry"/>
                </mxCell>
                <mxCell id="60" value="Firewall" style="sketch=0;aspect=fixed;html=1;points=[];align=center;image;fontSize=12;image=img/lib/mscae/Azure_Firewall.svg;dashed=1;dashPattern=1 2;labelBackgroundColor=none;fontColor=#333333;fillColor=none;fontStyle=1" parent="1" vertex="1">
                    <mxGeometry x="179.24" y="360" width="50" height="50" as="geometry"/>
                </mxCell>
                <mxCell id="78" style="edgeStyle=elbowEdgeStyle;html=1;fontColor=#333333;startArrow=none;startFill=0;endArrow=classic;endFill=1;endSize=7;strokeColor=#1A1A1A;labelBackgroundColor=none;" parent="1" source="35" edge="1">
                    <mxGeometry relative="1" as="geometry">
                        <mxPoint x="280" y="270" as="targetPoint"/>
                    </mxGeometry>
                </mxCell>
                <mxCell id="35" value="CSV semanal" style="sketch=0;pointerEvents=1;shadow=0;dashed=0;html=1;strokeColor=#005700;fillColor=#008a00;labelPosition=center;verticalLabelPosition=bottom;verticalAlign=top;outlineConnect=0;align=center;shape=mxgraph.office.users.csv_file;labelBackgroundColor=none;fontColor=#333333;fontStyle=1" parent="1" vertex="1">
                    <mxGeometry x="70" y="250" width="50" height="38.58" as="geometry"/>
                </mxCell>
                <mxCell id="79" style="edgeStyle=elbowEdgeStyle;html=1;fontColor=#333333;startArrow=none;startFill=0;endArrow=classic;endFill=1;endSize=7;exitX=0.98;exitY=0.504;exitDx=0;exitDy=0;exitPerimeter=0;strokeColor=#1A1A1A;labelBackgroundColor=none;" parent="1" edge="1">
                    <mxGeometry relative="1" as="geometry">
                        <mxPoint x="429" y="270" as="targetPoint"/>
                        <mxPoint x="331.61760000000004" y="270.16" as="sourcePoint"/>
                    </mxGeometry>
                </mxCell>
                <mxCell id="25" value="Almacenamiento" style="sketch=0;aspect=fixed;html=1;points=[];align=center;image;fontSize=12;image=img/lib/mscae/BlobBlock.svg;fontStyle=1;fontColor=#333333;labelBackgroundColor=none;" parent="1" vertex="1">
                    <mxGeometry x="281.95" y="250" width="47.62" height="40" as="geometry"/>
                </mxCell>
                <mxCell id="83" style="edgeStyle=elbowEdgeStyle;html=1;entryX=0.52;entryY=-0.043;entryDx=0;entryDy=0;entryPerimeter=0;fontColor=#333333;startArrow=none;startFill=0;endArrow=classic;endFill=1;endSize=7;exitX=1.006;exitY=0.603;exitDx=0;exitDy=0;exitPerimeter=0;strokeColor=#1A1A1A;labelBackgroundColor=none;" parent="1" source="14" target="26" edge="1">
                    <mxGeometry relative="1" as="geometry">
                        <mxPoint x="490" y="200" as="sourcePoint"/>
                        <mxPoint x="610.25" y="476.54999999999995" as="targetPoint"/>
                        <Array as="points">
                            <mxPoint x="581" y="380"/>
                        </Array>
                    </mxGeometry>
                </mxCell>
                <mxCell id="14" value="Nuevos Precios" style="aspect=fixed;html=1;points=[];align=center;image;fontSize=12;image=img/lib/azure2/compute/Function_Apps.svg;fontStyle=1;fontColor=#333333;labelBackgroundColor=none;" parent="1" vertex="1">
                    <mxGeometry x="430.65999999999997" y="240" width="56.67" height="50" as="geometry"/>
                </mxCell>
                <mxCell id="66" style="edgeStyle=elbowEdgeStyle;html=1;fontColor=#333333;startArrow=classic;startFill=1;endArrow=classic;endFill=1;exitX=1.036;exitY=0.107;exitDx=0;exitDy=0;exitPerimeter=0;entryX=1.037;entryY=0.471;entryDx=0;entryDy=0;entryPerimeter=0;strokeColor=#1A1A1A;labelBackgroundColor=none;" parent="1" source="2" target="4" edge="1">
                    <mxGeometry relative="1" as="geometry">
                        <mxPoint x="430" y="315" as="targetPoint"/>
                        <mxPoint x="331.51" y="485" as="sourcePoint"/>
                        <Array as="points">
                            <mxPoint x="370" y="380"/>
                            <mxPoint x="370" y="485"/>
                            <mxPoint x="350" y="485"/>
                            <mxPoint x="360" y="385"/>
                            <mxPoint x="380" y="455"/>
                            <mxPoint x="360" y="405"/>
                        </Array>
                    </mxGeometry>
                </mxCell>
                <mxCell id="68" style="edgeStyle=elbowEdgeStyle;html=1;fontColor=#333333;startArrow=classic;startFill=1;endArrow=classic;endFill=1;exitX=1.045;exitY=0.298;exitDx=0;exitDy=0;exitPerimeter=0;strokeColor=#1A1A1A;labelBackgroundColor=none;" parent="1" source="2" target="52" edge="1">
                    <mxGeometry relative="1" as="geometry">
                        <mxPoint x="331.51" y="495" as="sourcePoint"/>
                        <mxPoint x="430" y="410" as="targetPoint"/>
                        <Array as="points">
                            <mxPoint x="390" y="490"/>
                            <mxPoint x="420" y="445"/>
                            <mxPoint x="380" y="430"/>
                            <mxPoint x="380" y="470"/>
                            <mxPoint x="380" y="495"/>
                            <mxPoint x="380" y="455"/>
                            <mxPoint x="380" y="475"/>
                            <mxPoint x="370" y="495"/>
                            <mxPoint x="390" y="455"/>
                            <mxPoint x="390" y="465"/>
                            <mxPoint x="380" y="465"/>
                        </Array>
                    </mxGeometry>
                </mxCell>
                <mxCell id="74" style="edgeStyle=elbowEdgeStyle;html=1;fontColor=#333333;startArrow=none;startFill=0;endArrow=classic;endFill=1;exitX=1.04;exitY=0.703;exitDx=0;exitDy=0;exitPerimeter=0;entryX=-0.03;entryY=0.506;entryDx=0;entryDy=0;entryPerimeter=0;strokeColor=#1A1A1A;labelBackgroundColor=none;" parent="1" source="2" target="55" edge="1">
                    <mxGeometry relative="1" as="geometry">
                        <mxPoint x="331.51" y="515" as="sourcePoint"/>
                        <mxPoint x="420" y="620" as="targetPoint"/>
                        <Array as="points">
                            <mxPoint x="390" y="550"/>
                            <mxPoint x="380" y="565"/>
                            <mxPoint x="380" y="545"/>
                            <mxPoint x="370" y="515"/>
                            <mxPoint x="390" y="565"/>
                            <mxPoint x="390" y="545"/>
                            <mxPoint x="380" y="555"/>
                        </Array>
                    </mxGeometry>
                </mxCell>
                <mxCell id="75" style="edgeStyle=elbowEdgeStyle;html=1;entryX=-0.041;entryY=0.503;entryDx=0;entryDy=0;entryPerimeter=0;fontColor=#333333;startArrow=classic;startFill=1;endArrow=none;endFill=0;strokeColor=#1A1A1A;labelBackgroundColor=none;" parent="1" target="13" edge="1">
                    <mxGeometry relative="1" as="geometry">
                        <mxPoint x="333.51" y="525" as="sourcePoint"/>
                        <mxPoint x="429.25980000000004" y="655" as="targetPoint"/>
                        <Array as="points">
                            <mxPoint x="370" y="590"/>
                            <mxPoint x="352" y="525"/>
                            <mxPoint x="362" y="565"/>
                            <mxPoint x="382" y="615"/>
                            <mxPoint x="362" y="605"/>
                        </Array>
                    </mxGeometry>
                </mxCell>
                <mxCell id="81" style="edgeStyle=elbowEdgeStyle;html=1;entryX=-0.049;entryY=0.506;entryDx=0;entryDy=0;entryPerimeter=0;fontColor=#333333;startArrow=none;startFill=0;endArrow=classic;endFill=1;endSize=7;exitX=1.014;exitY=0.514;exitDx=0;exitDy=0;exitPerimeter=0;strokeColor=#1A1A1A;labelBackgroundColor=none;" parent="1" source="3" target="26" edge="1">
                    <mxGeometry relative="1" as="geometry">
                        <mxPoint x="490" y="505" as="sourcePoint"/>
                    </mxGeometry>
                </mxCell>
                <mxCell id="3" value="SERVER" style="aspect=fixed;html=1;points=[];align=center;image;fontSize=12;image=img/lib/azure2/other/Worker_Container_App.svg;fontStyle=1;fontColor=#333333;labelBackgroundColor=none;" parent="1" vertex="1">
                    <mxGeometry x="433.24" y="480" width="51.52" height="50" as="geometry"/>
                </mxCell>
                <mxCell id="4" value="API Candela" style="aspect=fixed;html=1;points=[];align=center;image;fontSize=12;image=img/lib/azure2/other/Worker_Container_App.svg;fontStyle=1;fontColor=#333333;labelBackgroundColor=none;" parent="1" vertex="1">
                    <mxGeometry x="279" y="380" width="51.52" height="50" as="geometry"/>
                </mxCell>
                <mxCell id="64" value="" style="edgeStyle=elbowEdgeStyle;html=1;fontColor=#333333;startArrow=none;startFill=0;endArrow=classic;endFill=1;strokeColor=#1A1A1A;labelBackgroundColor=none;" parent="1" edge="1">
                    <mxGeometry relative="1" as="geometry">
                        <mxPoint x="117.00000000000023" y="505" as="sourcePoint"/>
                        <mxPoint x="177" y="505" as="targetPoint"/>
                    </mxGeometry>
                </mxCell>
                <mxCell id="10" value="Usuario" style="verticalLabelPosition=bottom;html=1;verticalAlign=top;align=center;strokeColor=none;fillColor=#00BEF2;shape=mxgraph.azure.user;fontStyle=1;fontColor=#333333;labelBackgroundColor=none;" parent="1" vertex="1">
                    <mxGeometry x="70" y="480" width="50" height="50" as="geometry"/>
                </mxCell>
                <mxCell id="95" style="edgeStyle=orthogonalEdgeStyle;rounded=1;html=1;strokeColor=#1A1A1A;fontColor=#333333;startArrow=classic;startFill=1;endArrow=none;endFill=0;endSize=7;labelBackgroundColor=none;" parent="1" source="13" edge="1">
                    <mxGeometry relative="1" as="geometry">
                        <mxPoint x="490" y="655" as="sourcePoint"/>
                        <mxPoint x="590" y="550" as="targetPoint"/>
                        <Array as="points">
                            <mxPoint x="590" y="656"/>
                        </Array>
                    </mxGeometry>
                </mxCell>
                <mxCell id="13" value="Actualizar Tabla" style="aspect=fixed;html=1;points=[];align=center;image;fontSize=12;image=img/lib/azure2/iot/Function_Apps.svg;fontStyle=1;fontColor=#333333;labelBackgroundColor=none;" parent="1" vertex="1">
                    <mxGeometry x="409.99999999999994" y="631.18" width="56.67" height="50" as="geometry"/>
                </mxCell>
                <mxCell id="52" value="API Factura" style="aspect=fixed;html=1;points=[];align=center;image;fontSize=12;image=img/lib/azure2/other/Worker_Container_App.svg;fontStyle=1;fontColor=#333333;labelBackgroundColor=none;" parent="1" vertex="1">
                    <mxGeometry x="460" y="400" width="51.52" height="50" as="geometry"/>
                </mxCell>
                <mxCell id="82" style="edgeStyle=elbowEdgeStyle;html=1;fontColor=#333333;startArrow=none;startFill=0;endArrow=classic;endFill=1;endSize=7;strokeColor=#1A1A1A;labelBackgroundColor=none;" parent="1" edge="1">
                    <mxGeometry relative="1" as="geometry">
                        <mxPoint x="550" y="595" as="sourcePoint"/>
                        <mxPoint x="573" y="550" as="targetPoint"/>
                        <Array as="points">
                            <mxPoint x="573" y="570"/>
                        </Array>
                    </mxGeometry>
                </mxCell>
                <mxCell id="55" value="Guardar Datos" style="aspect=fixed;html=1;points=[];align=center;image;fontSize=12;image=img/lib/azure2/iot/Function_Apps.svg;fontStyle=1;fontColor=#333333;labelBackgroundColor=none;" parent="1" vertex="1">
                    <mxGeometry x="484.76" y="570" width="58" height="51.18" as="geometry"/>
                </mxCell>
                <mxCell id="12" value="" style="aspect=fixed;html=1;points=[];align=center;image;fontSize=12;image=img/lib/azure2/other/Container_App_Environments.svg;fontStyle=1;fontColor=#333333;labelBackgroundColor=none;" parent="1" vertex="1">
                    <mxGeometry x="254" y="340" width="25" height="25" as="geometry"/>
                </mxCell>
                <mxCell id="104" style="edgeStyle=orthogonalEdgeStyle;html=1;strokeColor=#4D4D4D;fontColor=#4D4D4D;" parent="1" source="99" edge="1">
                    <mxGeometry relative="1" as="geometry">
                        <mxPoint x="305" y="550" as="targetPoint"/>
                    </mxGeometry>
                </mxCell>
                <mxCell id="99" value="Landing" style="sketch=0;aspect=fixed;html=1;points=[];align=center;image;fontSize=12;image=img/lib/mscae/WebAppWordPress.svg;labelBackgroundColor=none;fontColor=#4D4D4D;fontStyle=1" parent="1" vertex="1">
                    <mxGeometry x="175.60000000000002" y="621.1800000000001" width="58.8" height="60" as="geometry"/>
                </mxCell>
                <mxCell id="101" style="edgeStyle=none;html=1;entryX=0.001;entryY=0.491;entryDx=0;entryDy=0;entryPerimeter=0;fontColor=#4D4D4D;strokeColor=#4D4D4D;" parent="1" source="100" target="99" edge="1">
                    <mxGeometry relative="1" as="geometry"/>
                </mxCell>
                <mxCell id="100" value="Customer" style="sketch=0;aspect=fixed;pointerEvents=1;shadow=0;dashed=0;html=1;strokeColor=none;labelPosition=center;verticalLabelPosition=bottom;verticalAlign=top;align=center;fillColor=#00188D;shape=mxgraph.azure.user;labelBackgroundColor=none;fontColor=#4D4D4D;fontStyle=1" parent="1" vertex="1">
                    <mxGeometry x="71.5" y="626.18" width="47" height="50" as="geometry"/>
                </mxCell>
                <mxCell id="110" value="Dashboard" style="aspect=fixed;html=1;points=[];align=center;image;fontSize=12;image=img/lib/azure2/other/Azure_Monitor_Dashboard.svg;labelBackgroundColor=none;strokeColor=#008A00;strokeWidth=1;fontColor=#4D4D4D;fillColor=default;gradientColor=none;fontStyle=1" parent="1" vertex="1">
                    <mxGeometry x="662.94" y="299" width="44.11" height="41" as="geometry"/>
                </mxCell>
                <mxCell id="111" value="Logs" style="aspect=fixed;html=1;points=[];align=center;image;fontSize=12;image=img/lib/azure2/management_governance/Operation_Log_Classic.svg;labelBackgroundColor=none;strokeColor=#008A00;strokeWidth=1;fontColor=#4D4D4D;fillColor=default;gradientColor=none;fontStyle=1" parent="1" vertex="1">
                    <mxGeometry x="667.86" y="600" width="34.27" height="41" as="geometry"/>
                </mxCell>
                <mxCell id="117" value="Contenedores" style="aspect=fixed;html=1;points=[];align=center;image;fontSize=12;image=img/lib/azure2/containers/Container_Registries.svg;fontStyle=1;fontColor=#333333;labelBackgroundColor=#FFFFFF;" parent="1" vertex="1">
                    <mxGeometry x="240" y="920" width="55.74" height="50" as="geometry"/>
                </mxCell>
                <mxCell id="118" value="Desarrollador" style="points=[[0.35,0,0],[0.98,0.51,0],[1,0.71,0],[0.67,1,0],[0,0.795,0],[0,0.65,0]];verticalLabelPosition=bottom;sketch=0;html=1;verticalAlign=top;aspect=fixed;align=center;pointerEvents=1;shape=mxgraph.cisco19.user;fillColor=#005073;strokeColor=none;fontStyle=1;fontColor=#333333;labelBackgroundColor=#FFFFFF;" parent="1" vertex="1">
                    <mxGeometry x="360" y="920" width="50" height="50" as="geometry"/>
                </mxCell>
                <mxCell id="119" value="GitHub" style="dashed=0;outlineConnect=0;html=1;align=center;labelPosition=center;verticalLabelPosition=bottom;verticalAlign=top;shape=mxgraph.weblogos.github;fontStyle=1;fontColor=#333333;labelBackgroundColor=#FFFFFF;" parent="1" vertex="1">
                    <mxGeometry x="480" y="960" width="50" height="50" as="geometry"/>
                </mxCell>
                <mxCell id="120" value="Pipeline" style="sketch=0;aspect=fixed;html=1;points=[];align=center;image;fontSize=12;image=img/lib/mscae/Azure_Pipelines.svg;fontStyle=1;fontColor=#333333;labelBackgroundColor=#FFFFFF;" parent="1" vertex="1">
                    <mxGeometry x="600" y="960" width="50" height="50" as="geometry"/>
                </mxCell>
                <mxCell id="121" value="Azure Devops" style="aspect=fixed;html=1;points=[];align=center;image;fontSize=12;image=img/lib/azure2/devops/Azure_DevOps.svg;fontStyle=1;fontColor=#333333;labelBackgroundColor=#FFFFFF;" parent="1" vertex="1">
                    <mxGeometry x="700" y="940" width="64" height="64" as="geometry"/>
                </mxCell>
            </root>
        </mxGraphModel>
    </diagram>
</mxfile>